<?xml version="1.0" encoding="utf-8"?>
<!-- Generator: Adobe Illustrator 17.0.0, SVG Export Plug-In . SVG Version: 6.00 Build 0)  -->
<!DOCTYPE svg PUBLIC "-//W3C//DTD SVG 1.1//EN" "http://www.w3.org/Graphics/SVG/1.1/DTD/svg11.dtd">
<svg version="1.1" id="Calque_1" xmlns="http://www.w3.org/2000/svg" xmlns:xlink="http://www.w3.org/1999/xlink" x="0px" y="0px"
	 width="30px" height="38px" viewBox="0 0 30 38" enable-background="new 0 0 30 38" xml:space="preserve">
<g>
	<g>
		<path d="M0,0v30h14l8,8v-8h8V0H0z M16.396,23.403C15.951,23.801,15.343,24,14.573,24c-0.794,0-1.416-0.197-1.866-0.591
			c-0.449-0.394-0.674-0.957-0.674-1.689c0-0.732,0.215-1.297,0.644-1.695c0.429-0.398,1.061-0.597,1.896-0.597
			c0.802,0,1.418,0.201,1.848,0.603c0.429,0.402,0.644,0.965,0.644,1.689C17.064,22.444,16.841,23.005,16.396,23.403z M20.32,12.857
			c-0.453,0.704-1.178,1.371-2.173,1.999c-0.843,0.541-1.37,0.937-1.583,1.188c-0.213,0.251-0.319,0.547-0.319,0.889v0.609h-3.695
			v-1.026c0-0.78,0.161-1.438,0.482-1.975c0.321-0.537,0.891-1.06,1.709-1.57c0.65-0.406,1.117-0.772,1.402-1.098
			c0.285-0.326,0.427-0.7,0.427-1.122c0-0.334-0.152-0.599-0.457-0.794c-0.305-0.195-0.702-0.293-1.191-0.293
			c-1.212,0-2.628,0.426-4.249,1.277L9,7.695C10.998,6.565,13.084,6,15.259,6c1.789,0,3.193,0.39,4.213,1.17
			C20.49,7.95,21,9.012,21,10.357C21,11.32,20.773,12.153,20.32,12.857z"/>
	</g>
</g>
</svg>
