<?xml version="1.0" encoding="utf-8"?>
<!-- Generator: Adobe Illustrator 17.0.0, SVG Export Plug-In . SVG Version: 6.00 Build 0)  -->
<!DOCTYPE svg PUBLIC "-//W3C//DTD SVG 1.1//EN" "http://www.w3.org/Graphics/SVG/1.1/DTD/svg11.dtd">
<svg version="1.1" id="Layer_1" xmlns="http://www.w3.org/2000/svg" xmlns:xlink="http://www.w3.org/1999/xlink" x="0px" y="0px"
	 width="53.855px" height="52.775px" viewBox="0 0 53.855 52.775" enable-background="new 0 0 53.855 52.775" xml:space="preserve">
<path fill-rule="evenodd" clip-rule="evenodd" fill="#231E1B" d="M27.054,0C12.114,0,0,12.113,0,27.057
	C0,39.009,7.751,49.15,18.503,52.728c1.353,0.248,1.847-0.587,1.847-1.304c0-0.642-0.023-2.344-0.037-4.602
	c-7.526,1.635-9.114-3.627-9.114-3.627c-1.23-3.125-3.004-3.958-3.004-3.958c-2.456-1.679,0.186-1.645,0.186-1.645
	c2.715,0.191,4.144,2.788,4.144,2.788c2.413,4.134,6.332,2.941,7.874,2.248c0.246-1.748,0.945-2.941,1.718-3.617
	C16.109,38.33,9.794,36.009,9.794,25.641c0-2.954,1.054-5.369,2.785-7.26c-0.278-0.684-1.207-3.435,0.265-7.16
	c0,0,2.272-0.727,7.44,2.774c2.158-0.6,4.472-0.9,6.773-0.911c2.298,0.01,4.612,0.311,6.773,0.911
	c5.165-3.501,7.433-2.774,7.433-2.774c1.476,3.725,0.547,6.476,0.269,7.16c1.734,1.891,2.781,4.306,2.781,7.26
	c0,10.394-6.326,12.681-12.353,13.351c0.971,0.835,1.837,2.487,1.837,5.01c0,3.617-0.033,6.535-0.033,7.422
	c0,0.723,0.487,1.565,1.86,1.301c10.742-3.585,18.487-13.719,18.487-25.668C54.111,12.113,41.996,0,27.054,0z"/>
</svg>
